<svg width="134" height="46" viewBox="0 0 134 46" fill="none" xmlns="http://www.w3.org/2000/svg">
<g clip-path="url(#clip0_1_1915)">
<path d="M126.18 1.05371H7.4445C3.59001 1.05371 0.465332 4.17839 0.465332 8.03288V37.8107C0.465332 41.6651 3.59001 44.7898 7.4445 44.7898H126.18C130.034 44.7898 133.159 41.6651 133.159 37.8107V8.03288C133.159 4.17839 130.034 1.05371 126.18 1.05371Z" fill="#050038"/>
<path d="M27.6593 23.2578C27.6713 22.3258 27.9189 21.4119 28.379 20.6013C28.8391 19.7906 29.4968 19.1095 30.2908 18.6213C29.7864 17.9009 29.1209 17.308 28.3473 16.8897C27.5736 16.4715 26.713 16.2395 25.834 16.2119C23.9589 16.0151 22.141 17.334 21.1854 17.334C20.2114 17.334 18.7402 16.2315 17.156 16.264C16.1312 16.2972 15.1325 16.5951 14.2573 17.129C13.3819 17.6628 12.6598 18.4143 12.1613 19.3102C10.0017 23.0492 11.6125 28.5444 13.6813 31.5667C14.7163 33.0467 15.9259 34.6999 17.5087 34.6413C19.0576 34.577 19.6362 33.6536 21.5057 33.6536C23.358 33.6536 23.9007 34.6413 25.5157 34.604C27.1777 34.577 28.2248 33.1174 29.2236 31.6234C29.9673 30.5689 30.5395 29.4035 30.9191 28.1701C29.9535 27.7618 29.1295 27.0782 28.5499 26.2046C27.9702 25.3311 27.6604 24.3062 27.6593 23.2578Z" fill="white"/>
<path d="M24.6082 14.224C25.5144 13.1361 25.9609 11.7378 25.8527 10.3262C24.4683 10.4715 23.1894 11.1332 22.2709 12.1794C21.8219 12.6904 21.478 13.285 21.2589 13.929C21.0397 14.573 20.9496 15.254 20.9938 15.9329C21.6863 15.94 22.3713 15.7899 22.9974 15.4939C23.6235 15.1979 24.1743 14.7637 24.6082 14.224Z" fill="white"/>
<path d="M47.239 30.8942H41.9534L40.684 34.6422H38.4453L43.4517 20.7754H45.7777L50.7842 34.6422H48.5072L47.239 30.8942ZM42.5008 29.1646H46.6905L44.6251 23.0819H44.5673L42.5008 29.1646Z" fill="white"/>
<path d="M61.5961 29.588C61.5961 32.7297 59.9145 34.7482 57.3769 34.7482C56.7341 34.7818 56.0948 34.6337 55.5323 34.321C54.9697 34.0081 54.5066 33.5432 54.196 32.9794H54.148V37.9869H52.0728V24.5325H54.0815V26.214H54.1196C54.4446 25.6529 54.9154 25.1905 55.4823 24.8757C56.0492 24.5609 56.6907 24.4058 57.3388 24.4267C59.9046 24.4267 61.5961 26.455 61.5961 29.588ZM59.463 29.588C59.463 27.5411 58.4053 26.1955 56.7913 26.1955C55.2057 26.1955 54.1392 27.5695 54.1392 29.588C54.1392 31.6251 55.2057 32.9893 56.7913 32.9893C58.4053 32.9893 59.463 31.6534 59.463 29.588Z" fill="white"/>
<path d="M72.725 29.588C72.725 32.7297 71.0434 34.7482 68.5058 34.7482C67.863 34.7818 67.2237 34.6337 66.6612 34.3209C66.0986 34.0081 65.6354 33.5432 65.3248 32.9794H65.2768V37.9869H63.2017V24.5325H65.2103V26.214H65.2485C65.5734 25.6529 66.0443 25.1904 66.6111 24.8757C67.178 24.5609 67.8195 24.4058 68.4676 24.4267C71.0336 24.4267 72.725 26.455 72.725 29.588ZM70.5919 29.588C70.5919 27.5411 69.5341 26.1955 67.9202 26.1955C66.3347 26.1955 65.2681 27.5695 65.2681 29.588C65.2681 31.6251 66.3347 32.9893 67.9202 32.9893C69.5342 32.9893 70.5919 31.6534 70.5919 29.588Z" fill="white"/>
<path d="M80.0784 30.7793C80.2322 32.1543 81.568 33.0573 83.3935 33.0573C85.1426 33.0573 86.401 32.1543 86.401 30.9145C86.401 29.8381 85.6421 29.1937 83.845 28.752L82.0478 28.3191C79.5015 27.7041 78.3194 26.5132 78.3194 24.5808C78.3194 22.1883 80.4044 20.5449 83.3651 20.5449C86.2952 20.5449 88.3039 22.1883 88.3716 24.5808H86.2767C86.1514 23.197 85.0074 22.3617 83.3357 22.3617C81.664 22.3617 80.52 23.2069 80.52 24.437C80.52 25.4173 81.2507 25.9942 83.038 26.4357L84.5657 26.8109C87.4108 27.4837 88.593 28.6266 88.593 30.6548C88.593 33.2491 86.5265 34.874 83.2397 34.874C80.1645 34.874 78.0882 33.2873 77.9541 30.7792L80.0784 30.7793Z" fill="white"/>
<path d="M93.0725 22.1396V24.5322H94.995V26.1756H93.0725V31.749C93.0725 32.6149 93.4568 33.0184 94.3017 33.0184C94.5306 33.0144 94.7586 32.9984 94.9847 32.9704V34.604C94.6051 34.675 94.2189 34.7071 93.8318 34.6999C91.7853 34.6999 90.987 33.9311 90.987 31.9704V26.1756H89.5171V24.5322H90.987V22.1396H93.0725Z" fill="white"/>
<path d="M96.1069 29.588C96.1069 26.4071 97.9811 24.4082 100.902 24.4082C103.833 24.4082 105.698 26.407 105.698 29.588C105.698 32.7777 103.844 34.7679 100.902 34.7679C97.9625 34.7679 96.1069 32.7777 96.1069 29.588ZM103.584 29.588C103.584 27.406 102.584 26.1181 100.902 26.1181C99.2206 26.1181 98.2221 27.4158 98.2221 29.588C98.2221 31.7789 99.2206 33.0569 100.902 33.0569C102.584 33.0569 103.584 31.7789 103.584 29.588Z" fill="white"/>
<path d="M107.408 24.5324H109.387V26.2531H109.435C109.569 25.7157 109.884 25.2407 110.327 24.9081C110.769 24.5754 111.314 24.4054 111.867 24.4266C112.107 24.4257 112.345 24.4517 112.578 24.504V26.445C112.276 26.3528 111.961 26.3104 111.646 26.3196C111.344 26.3074 111.044 26.3605 110.765 26.4755C110.486 26.5903 110.235 26.7642 110.03 26.9852C109.824 27.2062 109.669 27.469 109.575 27.7556C109.481 28.0422 109.449 28.3459 109.483 28.6456V34.6423H107.408V24.5324Z" fill="white"/>
<path d="M122.147 31.673C121.868 33.5084 120.081 34.7679 117.794 34.7679C114.854 34.7679 113.028 32.7973 113.028 29.6361C113.028 26.4649 114.863 24.4082 117.707 24.4082C120.504 24.4082 122.263 26.3296 122.263 29.395V30.106H115.123V30.2314C115.09 30.6035 115.136 30.9783 115.259 31.331C115.382 31.6838 115.578 32.0062 115.836 32.277C116.093 32.5479 116.406 32.7609 116.751 32.9019C117.097 33.0429 117.469 33.1088 117.843 33.095C118.333 33.141 118.825 33.0275 119.246 32.7712C119.666 32.515 119.993 32.1299 120.177 31.673H122.147ZM115.133 28.6556H120.187C120.205 28.3211 120.155 27.9864 120.038 27.6723C119.921 27.3583 119.741 27.0718 119.507 26.8309C119.275 26.59 118.995 26.3998 118.685 26.2722C118.375 26.1447 118.042 26.0826 117.707 26.0897C117.369 26.0878 117.034 26.1526 116.721 26.2808C116.409 26.4089 116.125 26.5977 115.885 26.8363C115.645 27.0748 115.456 27.3584 115.326 27.6707C115.198 27.9829 115.132 28.3177 115.133 28.6557V28.6556Z" fill="white"/>
<path d="M42.2408 10.3381C42.6758 10.3069 43.1123 10.3726 43.519 10.5305C43.9255 10.6885 44.292 10.9347 44.5919 11.2514C44.8918 11.5681 45.1178 11.9474 45.2534 12.3621C45.3888 12.7766 45.4307 13.2161 45.3759 13.6488C45.3759 15.7775 44.2255 17.0011 42.2408 17.0011H39.834V10.3381H42.2408ZM40.8689 16.0588H42.1251C42.436 16.0774 42.7472 16.0264 43.0358 15.9096C43.3245 15.7927 43.5836 15.6131 43.7941 15.3835C44.0045 15.1539 44.1612 14.8803 44.2525 14.5827C44.344 14.2849 44.3678 13.9705 44.3224 13.6624C44.3646 13.3555 44.3382 13.0431 44.2455 12.7476C44.1527 12.4521 43.9956 12.1807 43.7856 11.953C43.5757 11.7253 43.3178 11.5468 43.0307 11.4304C42.7436 11.314 42.4344 11.2625 42.1251 11.2797H40.8689V16.0588Z" fill="white"/>
<path d="M46.5444 14.485C46.5128 14.1545 46.5507 13.8211 46.6554 13.5061C46.7602 13.1911 46.9297 12.9015 47.1529 12.656C47.3761 12.4103 47.6483 12.214 47.9519 12.0797C48.2554 11.9454 48.5837 11.876 48.9157 11.876C49.2477 11.876 49.576 11.9454 49.8795 12.0797C50.1831 12.214 50.4552 12.4103 50.6785 12.656C50.9017 12.9015 51.0712 13.1911 51.176 13.5061C51.2808 13.8211 51.3186 14.1545 51.287 14.485C51.3192 14.8157 51.2819 15.1496 51.1773 15.4651C51.0728 15.7806 50.9034 16.0707 50.6801 16.3169C50.4568 16.563 50.1845 16.7596 49.8806 16.8943C49.5767 17.0288 49.2481 17.0983 48.9157 17.0983C48.5834 17.0983 48.2547 17.0288 47.9509 16.8943C47.6469 16.7596 47.3746 16.563 47.1512 16.3169C46.928 16.0707 46.7586 15.7806 46.654 15.4651C46.5495 15.1496 46.5122 14.8157 46.5444 14.485ZM50.2663 14.485C50.2663 13.395 49.7766 12.7576 48.9173 12.7576C48.0548 12.7576 47.5695 13.395 47.5695 14.485C47.5695 15.5837 48.0548 16.2161 48.9173 16.2161C49.7767 16.2161 50.2663 15.5793 50.2663 14.485Z" fill="white"/>
<path d="M57.5915 17.0009H56.5621L55.5229 13.2976H55.4444L54.4095 17.0009H53.3899L52.0039 11.9727H53.0104L53.9112 15.8095H53.9853L55.0191 11.9727H55.971L57.0049 15.8095H57.0833L57.9797 11.9727H58.9721L57.5915 17.0009Z" fill="white"/>
<path d="M60.1372 11.9731H61.0925V12.7719H61.1667C61.2924 12.485 61.5046 12.2445 61.7736 12.0839C62.0425 11.9233 62.3549 11.8506 62.6671 11.8761C62.9118 11.8576 63.1575 11.8946 63.386 11.984C63.6144 12.0734 63.8198 12.2131 63.987 12.3927C64.1541 12.5723 64.2787 12.7873 64.3515 13.0216C64.4244 13.2559 64.4434 13.5035 64.4075 13.7462V17.0013H63.4152V13.9954C63.4152 13.1874 63.0641 12.7855 62.3302 12.7855C62.164 12.7778 61.9982 12.806 61.8441 12.8684C61.6899 12.9307 61.5511 13.0257 61.437 13.1467C61.323 13.2677 61.2365 13.412 61.1834 13.5696C61.1303 13.7272 61.112 13.8944 61.1296 14.0598V17.0014H60.1372V11.9731Z" fill="white"/>
<path d="M65.9897 10.0098H66.9821V17.0009H65.9897V10.0098Z" fill="white"/>
<path d="M68.3618 14.4851C68.3302 14.1546 68.368 13.8212 68.4728 13.5062C68.5777 13.1912 68.7471 12.9016 68.9705 12.656C69.1937 12.4103 69.4659 12.214 69.7694 12.0797C70.0731 11.9454 70.4014 11.876 70.7333 11.876C71.0653 11.876 71.3936 11.9454 71.6972 12.0797C72.0008 12.214 72.2729 12.4103 72.4962 12.656C72.7195 12.9016 72.889 13.1912 72.9938 13.5062C73.0986 13.8212 73.1365 14.1546 73.1048 14.4851C73.137 14.8159 73.0996 15.1497 72.9951 15.4652C72.8906 15.7807 72.7212 16.0708 72.4978 16.317C72.2745 16.5631 72.0021 16.7597 71.6982 16.8943C71.3944 17.0289 71.0657 17.0984 70.7333 17.0984C70.401 17.0984 70.0723 17.0289 69.7684 16.8943C69.4645 16.7597 69.1921 16.5631 68.9688 16.317C68.7455 16.0708 68.5761 15.7807 68.4715 15.4652C68.367 15.1497 68.3296 14.8159 68.3618 14.4851ZM72.0836 14.4851C72.0836 13.3951 71.594 12.7577 70.7347 12.7577C69.8721 12.7577 69.3869 13.3951 69.3869 14.4851C69.3869 15.5838 69.8722 16.2162 70.7347 16.2162C71.594 16.2162 72.0836 15.5794 72.0836 14.4851Z" fill="white"/>
<path d="M74.1479 15.5793C74.1479 14.6742 74.8219 14.1524 76.0182 14.0782L77.3802 13.9998V13.5657C77.3802 13.0346 77.029 12.7348 76.3508 12.7348C75.7968 12.7348 75.4129 12.9381 75.3029 13.2937H74.3421C74.4435 12.4299 75.256 11.876 76.3965 11.876C77.6572 11.876 78.3682 12.5035 78.3682 13.5657V17.0013H77.4129V16.2947H77.3344C77.175 16.5481 76.9512 16.7548 76.6859 16.8935C76.4205 17.0322 76.1231 17.098 75.8241 17.0842C75.613 17.1062 75.3996 17.0836 75.1978 17.018C74.996 16.9525 74.81 16.8454 74.6521 16.7036C74.4942 16.5618 74.3677 16.3885 74.2809 16.1949C74.1941 16.0012 74.1488 15.7916 74.1479 15.5793ZM77.3802 15.1497V14.7292L76.1523 14.8078C75.4598 14.8541 75.1458 15.0897 75.1458 15.533C75.1458 15.9855 75.5384 16.2488 76.0782 16.2488C76.2364 16.2648 76.3962 16.2489 76.548 16.2019C76.6999 16.155 76.8408 16.0778 76.9622 15.9753C77.0837 15.8727 77.1833 15.7468 77.2551 15.6049C77.3269 15.4631 77.3694 15.3082 77.3802 15.1497Z" fill="white"/>
<path d="M79.6733 14.4846C79.6733 12.8958 80.4902 11.8892 81.7606 11.8892C82.0748 11.8748 82.3867 11.9501 82.6598 12.1062C82.9328 12.2625 83.1558 12.4931 83.3025 12.7714H83.3767V10.0098H84.369V17.0009H83.4182V16.2065H83.3396C83.1815 16.4828 82.9508 16.7107 82.6724 16.8654C82.3941 17.0199 82.0787 17.0955 81.7606 17.0838C80.4814 17.0838 79.6733 16.0773 79.6733 14.4846ZM80.6984 14.4846C80.6984 15.5511 81.2012 16.1928 82.042 16.1928C82.8784 16.1928 83.3953 15.5418 83.3953 14.489C83.3953 13.441 82.873 12.7808 82.042 12.7808C81.2066 12.7808 80.6984 13.4269 80.6984 14.4846Z" fill="white"/>
<path d="M88.4741 14.485C88.4425 14.1545 88.4803 13.8211 88.5851 13.5061C88.6899 13.1911 88.8594 12.9015 89.0826 12.656C89.3058 12.4103 89.578 12.214 89.8816 12.0797C90.1851 11.9454 90.5134 11.876 90.8453 11.876C91.1774 11.876 91.5056 11.9454 91.8092 12.0797C92.1128 12.214 92.3849 12.4103 92.6082 12.656C92.8314 12.9015 93.0009 13.1911 93.1059 13.5061C93.2102 13.8211 93.2483 14.1545 93.2167 14.485C93.2492 14.8157 93.2111 15.1496 93.1069 15.4651C93.0025 15.7806 92.8331 16.0707 92.6098 16.3169C92.3864 16.563 92.1142 16.7596 91.8102 16.8943C91.5064 17.0288 91.1777 17.0983 90.8453 17.0983C90.513 17.0983 90.1844 17.0288 89.8805 16.8943C89.5766 16.7596 89.3043 16.563 89.0809 16.3169C88.8576 16.0707 88.6882 15.7806 88.5837 15.4651C88.4792 15.1496 88.4419 14.8157 88.4741 14.485ZM92.196 14.485C92.196 13.395 91.7063 12.7576 90.847 12.7576C89.9845 12.7576 89.4992 13.395 89.4992 14.485C89.4992 15.5837 89.9845 16.2161 90.847 16.2161C91.7063 16.2161 92.196 15.5793 92.196 14.485Z" fill="white"/>
<path d="M94.5493 11.9731H95.505V12.7719H95.5794C95.7051 12.485 95.9172 12.2445 96.1862 12.0839C96.4551 11.9233 96.7678 11.8506 97.0795 11.8761C97.3242 11.8576 97.5699 11.8946 97.7988 11.984C98.0268 12.0734 98.2324 12.2131 98.3999 12.3927C98.5665 12.5723 98.6912 12.7873 98.7638 13.0216C98.8373 13.2559 98.8559 13.5035 98.8206 13.7462V17.0013H97.8277V13.9954C97.8277 13.1874 97.4768 12.7855 96.7426 12.7855C96.577 12.7778 96.4104 12.806 96.2569 12.8684C96.1024 12.9307 95.9638 13.0257 95.8493 13.1467C95.7358 13.2677 95.6492 13.412 95.5962 13.5696C95.5431 13.7272 95.5245 13.8944 95.5422 14.0598V17.0014H94.5493V11.9731Z" fill="white"/>
<path d="M104.427 10.7207V11.9956H105.517V12.8314H104.427V15.4169C104.427 15.9436 104.645 16.1743 105.138 16.1743C105.265 16.1739 105.391 16.1662 105.517 16.1514V16.9779C105.339 17.0099 105.158 17.0268 104.977 17.0287C103.873 17.0287 103.434 16.6404 103.434 15.6711V12.8314H102.636V11.9955H103.434V10.7207H104.427Z" fill="white"/>
<path d="M106.873 10.0098H107.856V12.7807H107.934C108.066 12.4912 108.284 12.2492 108.559 12.0881C108.833 11.9269 109.151 11.8542 109.468 11.88C109.711 11.8667 109.955 11.9074 110.18 11.999C110.406 12.0906 110.609 12.2309 110.774 12.4099C110.94 12.589 111.064 12.8024 111.137 13.0348C111.211 13.2672 111.231 13.5129 111.2 13.7545V17.0009H110.206V13.9993C110.206 13.1962 109.832 12.7894 109.131 12.7894C108.96 12.7755 108.789 12.7989 108.628 12.8581C108.468 12.9174 108.321 13.011 108.201 13.1324C108.08 13.2539 107.988 13.4002 107.93 13.561C107.872 13.722 107.85 13.8937 107.865 14.0642V17.0009H106.873V10.0098Z" fill="white"/>
<path d="M116.984 15.6437C116.849 16.1033 116.557 16.5008 116.159 16.7667C115.76 17.0326 115.281 17.1501 114.806 17.0984C114.474 17.1072 114.145 17.0437 113.841 16.9125C113.536 16.7813 113.264 16.5854 113.043 16.3384C112.822 16.0915 112.658 15.7995 112.561 15.4825C112.464 15.1656 112.437 14.8313 112.483 14.5031C112.438 14.1738 112.465 13.8389 112.562 13.521C112.659 13.2031 112.823 12.9097 113.042 12.6606C113.262 12.4115 113.533 12.2125 113.836 12.0772C114.139 11.9418 114.469 11.8733 114.801 11.8761C116.2 11.8761 117.044 12.8319 117.044 14.4109V14.7572H113.494V14.8128C113.478 14.9973 113.501 15.1831 113.562 15.3581C113.622 15.5331 113.719 15.6936 113.844 15.8292C113.971 15.9648 114.124 16.0726 114.294 16.1456C114.464 16.2187 114.647 16.2553 114.833 16.2533C115.07 16.2818 115.31 16.2391 115.523 16.1305C115.736 16.022 115.912 15.8525 116.028 15.6437H116.984ZM113.494 14.0232H116.033C116.046 13.8545 116.023 13.685 115.966 13.5257C115.909 13.3663 115.819 13.2205 115.703 13.0979C115.586 12.9752 115.445 12.8783 115.289 12.8133C115.133 12.7484 114.965 12.7168 114.795 12.7206C114.624 12.7185 114.454 12.7508 114.295 12.8155C114.136 12.8801 113.991 12.9761 113.87 13.0974C113.749 13.2189 113.653 13.3633 113.588 13.5223C113.523 13.6813 113.491 13.8516 113.494 14.0232Z" fill="white"/>
<path d="M126.18 1.05371H7.4445C3.59001 1.05371 0.465332 4.17839 0.465332 8.03288V37.8107C0.465332 41.6651 3.59001 44.7898 7.4445 44.7898H126.18C130.034 44.7898 133.159 41.6651 133.159 37.8107V8.03288C133.159 4.17839 130.034 1.05371 126.18 1.05371Z" stroke="#A6A6A6" stroke-width="0.930556"/>
</g>
<defs>
<clipPath id="clip0_1_1915">
<rect width="134" height="45" fill="white" transform="translate(0 0.421875)"/>
</clipPath>
</defs>
</svg>
