<svg width="289" height="63" viewBox="0 0 289 63" fill="none" xmlns="http://www.w3.org/2000/svg">
<g clip-path="url(#clip0_1_1790)">
<path d="M288.844 0.922852H0.90625V62.6237H288.844V0.922852Z" fill="white"/>
<path d="M5.10882 17.9146V21.6563H0.90625V26.5355H5.10882V46.1498C5.10882 47.6381 6.63128 48.8303 8.54565 48.8303C10.46 48.8303 12.0187 47.6471 12.0187 46.159V26.5446H17.605V21.6655H12.0187V17.9146C12.0187 13.4013 15.5158 12.5688 20.3032 13.6453V8.76606C13.5622 7.24436 5.10882 7.95184 5.10882 17.9146ZM26.6342 26.5446H26.4895V21.6655H20.8971V46.1651C20.8971 47.6533 22.4045 48.8456 24.334 48.8456C26.2634 48.8456 27.7979 47.6533 27.7979 46.1651V33.8299C27.7979 28.0114 31.5453 26.5324 36.0824 26.5324V21.0433C31.9793 21.0219 28.1356 22.3912 26.6342 26.5446ZM74.9307 21.0556C68.268 21.0556 62.8716 24.3947 62.8716 30.9572C62.8716 34.452 64.4061 37.0319 66.8511 38.6817C66.6702 38.8005 66.4953 38.9225 66.3235 39.0506C63.2937 41.3164 62.9681 45.2228 65.7446 47.3544C64.3851 48.5742 62.4585 50.7577 62.4585 53.8011C62.4585 58.6314 66.9204 61.7511 74.9276 61.7511C82.9348 61.7511 89.0488 57.9545 89.0488 52.1086C89.0488 46.2626 85.0331 43.9664 77.7072 43.9664H72.9167C69.5613 43.9664 69.8477 41.6214 70.9541 40.612C71.0114 40.5601 71.0718 40.5113 71.1381 40.4595C72.385 40.7246 73.6565 40.8534 74.9307 40.8438C81.5963 40.8438 86.9897 37.4893 86.9897 30.9481C87.0047 29.5936 86.7409 28.2508 86.2148 27.0051C87.2353 26.7228 88.2864 26.5702 89.3442 26.5508V21.6715C86.3807 21.6715 84.4693 21.8728 82.4435 22.87C80.3904 21.6472 77.7766 21.0402 74.9307 21.0402V21.0556ZM71.2677 48.8548H77.7012C80.3421 48.8548 82.142 49.6843 82.142 52.1086C82.142 55.3655 79.3804 56.8658 74.9065 56.8658C68.0389 56.8505 68.4489 51.1418 71.2677 48.8395V48.8548ZM74.9307 35.9646C72.0817 35.9646 69.7664 34.8454 69.7664 30.9542C69.7664 27.0631 72.0817 25.9439 74.9307 25.9439C77.7796 25.9439 80.0979 27.06 80.0979 30.9542C80.0979 34.8484 77.7856 35.9646 74.9307 35.9646ZM48.6209 21.0402C41.1321 21.0402 36.5618 25.7274 36.5618 34.9399C36.5618 44.1525 41.1382 48.8395 48.6209 48.8395C56.1035 48.8395 60.6799 44.1525 60.6799 34.9399C60.6799 25.7274 56.1125 21.0402 48.6209 21.0402ZM48.6209 43.9511C45.7689 43.9511 43.4565 42.7801 43.4565 34.9399C43.4565 27.0997 45.784 25.9348 48.6209 25.9348C51.4577 25.9348 53.7851 27.1027 53.7851 34.9399C53.7851 42.7772 51.4728 43.9511 48.6209 43.9511Z" fill="#050038"/>
</g>
<defs>
<clipPath id="clip0_1_1790">
<rect width="287.938" height="61.7009" fill="white" transform="translate(0.90625 0.922852)"/>
</clipPath>
</defs>
</svg>
