<svg width="152" height="46" viewBox="0 0 152 46" fill="none" xmlns="http://www.w3.org/2000/svg">
<g clip-path="url(#clip0_1_1942)">
<path d="M144.165 1.00781H8.0173C4.1547 1.00781 1.02344 4.13907 1.02344 8.00168V37.8422C1.02344 41.7048 4.1547 44.836 8.0173 44.836H144.165C148.027 44.836 151.158 41.7048 151.158 37.8422V8.00168C151.158 4.13907 148.027 1.00781 144.165 1.00781Z" fill="#050038"/>
<path d="M53.6179 12.0039C53.6179 12.9415 53.3403 13.688 52.7843 14.245C52.1527 14.9072 51.3295 15.2385 50.3177 15.2385C49.3486 15.2385 48.5246 14.9028 47.8471 14.2306C47.1683 13.5587 46.8296 12.7256 46.8296 11.7315C46.8296 10.7371 47.1683 9.90446 47.8471 9.23213C48.5246 8.56027 49.3486 8.22412 50.3177 8.22412C50.7985 8.22412 51.2589 8.31812 51.6959 8.50567C52.133 8.69366 52.4836 8.9432 52.7459 9.25574L52.1557 9.84625C51.7112 9.31516 51.0993 9.04984 50.3177 9.04984C49.6108 9.04984 48.9997 9.29815 48.484 9.79511C47.9681 10.2927 47.7104 10.9378 47.7104 11.7315C47.7104 12.5254 47.9681 13.1705 48.484 13.668C48.9997 14.165 49.6108 14.4133 50.3177 14.4133C51.0674 14.4133 51.6925 14.1636 52.1929 13.6637C52.5177 13.3379 52.7056 12.8851 52.7558 12.3037H50.3177V11.4973H53.5712C53.6026 11.6726 53.6179 11.8409 53.6179 12.0039Z" fill="white"/>
<path d="M53.6191 12.004H53.5072C53.5062 12.9202 53.2387 13.6317 52.7062 14.166L52.705 14.1669L52.7047 14.1677C52.0931 14.8072 51.3071 15.1254 50.3187 15.1267C49.3755 15.1254 48.586 14.8037 47.9268 14.1515C47.2691 13.498 46.9438 12.7003 46.9426 11.7316C46.9438 10.7626 47.2691 9.96525 47.9268 9.31223C48.586 8.65962 49.3755 8.33745 50.3187 8.33611C50.7852 8.33611 51.2293 8.42709 51.6529 8.60848C52.0768 8.79121 52.4118 9.03069 52.6613 9.32801L52.747 9.25583L52.6679 9.17672L52.0777 9.76767L52.1568 9.84634L52.2431 9.77472C51.7778 9.21734 51.1249 8.93635 50.3187 8.93803C49.5858 8.93713 48.941 9.19899 48.4077 9.71485C47.8692 10.2324 47.5987 10.9138 47.5995 11.7316C47.5987 12.5495 47.8692 13.2309 48.4077 13.7485C48.941 14.2643 49.5858 14.5262 50.3187 14.5253C51.0934 14.5267 51.7534 14.2639 52.2731 13.7429C52.6203 13.3949 52.8169 12.9127 52.8685 12.3134L52.8789 12.1919H50.4306V11.6093H53.5723V11.4974L53.462 11.5171C53.4927 11.6867 53.5072 11.8479 53.5072 12.004H53.6191H53.731C53.731 11.8339 53.7152 11.6592 53.6824 11.4773L53.6658 11.3855H50.2068V12.3038V12.4157H52.757V12.3038L52.6455 12.2942C52.5962 12.8573 52.4169 13.2813 52.1148 13.5846C51.634 14.0637 51.0439 14.3001 50.3187 14.3014C49.6382 14.3006 49.0608 14.0663 48.5629 13.5877C48.0699 13.1107 47.8245 12.5019 47.8233 11.7316C47.8245 10.9615 48.0699 10.3526 48.5629 9.87564C49.0608 9.39705 49.6382 9.16273 50.3187 9.16183C51.0755 9.16362 51.6468 9.41361 52.0712 9.91853L52.1499 10.0121L52.8262 9.33495L52.8986 9.26243L52.8326 9.1841C52.5577 8.85634 52.1914 8.59617 51.7411 8.40303C51.29 8.20933 50.814 8.11231 50.3187 8.11231C49.3239 8.11141 48.4654 8.4611 47.769 9.15311C47.0701 9.84376 46.7179 10.7119 46.7188 11.7316C46.7179 12.751 47.0701 13.6196 47.7695 14.3107C48.4654 15.0022 49.3239 15.3515 50.3187 15.3505C51.3547 15.3515 52.2142 15.0074 52.8663 14.3224L52.7854 14.2451L52.8645 14.3242C53.4441 13.745 53.7317 12.9625 53.731 12.004H53.6191Z" fill="white"/>
<path d="M58.7776 9.19934H55.7199V11.3282H58.4773V12.135H55.7199V14.2638H58.7776V15.0886H54.8579V8.37451H58.7776V9.19934Z" fill="white"/>
<path d="M58.7767 9.19943V9.08752H55.6071V11.4402H58.3645V12.0228L55.6071 12.0232V14.3758H58.6648V14.9768H54.9689V8.4865H58.6648V9.19943H58.7767V9.08752V9.19943H58.8886V8.3746V8.2627H54.7451V15.2006H58.8886V14.2639V14.152H55.8309V12.247H58.5883V11.3283V11.2164H55.8309V9.31133H58.8886V9.19943H58.7767Z" fill="white"/>
<path d="M62.4159 15.0886H61.5525V9.19934H59.6772V8.37451H64.2911V9.19934H62.4159V15.0886Z" fill="white"/>
<path d="M62.415 15.0887V14.9768H61.6635V9.08752H59.7883V8.4865H64.1783V9.08752H62.3031V15.0887H62.415V14.9768V15.0887H62.5269V9.31133H64.4021V8.3746V8.2627H59.5645V9.19943V9.31133H61.4397V15.2006H62.415H62.5269V15.0887H62.415Z" fill="white"/>
<path d="M67.6294 15.0886V8.37451H68.4919V15.0886H67.6294Z" fill="white"/>
<path d="M67.628 15.0887H67.7399V8.4865H68.3786V14.9768H67.628V15.0887H67.7399H67.628V15.2006H68.4905H68.6024V8.2627H67.628H67.5161V15.2006H67.628V15.0887Z" fill="white"/>
<path d="M72.3181 15.0886H71.4548V9.19934H69.5796V8.37451H74.1933V9.19934H72.3181V15.0886Z" fill="white"/>
<path d="M72.3172 15.0887V14.9768H71.5658V9.08752H69.6906V8.4865H74.0805V9.08752H72.2053V15.0887H72.3172V14.9768V15.0887H72.4291V9.31133H74.3043V8.3746V8.2627H69.4668V9.19943V9.31133H71.342V15.2006H72.3172H72.4291V15.0887H72.3172Z" fill="white"/>
<path d="M78.6407 13.6589C79.1376 14.1619 79.7457 14.4133 80.4648 14.4133C81.1838 14.4133 81.7923 14.1619 82.2885 13.6589C82.7859 13.1558 83.0351 12.5126 83.0351 11.7315C83.0351 10.9505 82.7859 10.3074 82.2885 9.80429C81.7923 9.30118 81.1838 9.04984 80.4648 9.04984C79.7457 9.04984 79.1376 9.30118 78.6407 9.80429C78.1445 10.3074 77.8954 10.9505 77.8954 11.7315C77.8954 12.5126 78.1445 13.1558 78.6407 13.6589ZM82.9266 14.221C82.2665 14.8998 81.4456 15.2385 80.4648 15.2385C79.4829 15.2385 78.6625 14.8998 78.0039 14.221C77.3433 13.5429 77.0146 12.7129 77.0146 11.7315C77.0146 10.7502 77.3433 9.92012 78.0039 9.2422C78.6625 8.5633 79.4829 8.22412 80.4648 8.22412C81.4405 8.22412 82.2591 8.56509 82.9222 9.24657C83.5845 9.92805 83.9158 10.7563 83.9158 11.7315C83.9158 12.7129 83.5852 13.5429 82.9266 14.221Z" fill="white"/>
<path d="M78.6412 13.6589L78.5616 13.7377C79.0771 14.2609 79.7201 14.5267 80.4653 14.5253C81.2101 14.5267 81.854 14.2609 82.3685 13.7377C82.8874 13.214 83.1483 12.5364 83.1475 11.7316C83.1483 10.927 82.8874 10.2494 82.3685 9.72571C81.854 9.20246 81.2101 8.93669 80.4653 8.93803C79.7201 8.93669 79.0771 9.20246 78.5616 9.72571C78.0441 10.2494 77.7827 10.927 77.7841 11.7316C77.7827 12.5364 78.0441 13.214 78.5616 13.7377L78.6412 13.6589L78.7208 13.5802C78.2461 13.0972 78.0087 12.4896 78.0079 11.7316C78.0087 10.9738 78.2461 10.3661 78.7208 9.88301C79.1998 9.40007 79.772 9.16318 80.4653 9.16183C81.1581 9.16318 81.7316 9.40007 82.2094 9.88301C82.685 10.3661 82.9223 10.9738 82.9233 11.7316C82.9223 12.4896 82.685 13.0972 82.2094 13.5802C81.7316 14.0633 81.1581 14.3001 80.4653 14.3014C79.772 14.3001 79.1998 14.0633 78.7208 13.5802L78.6412 13.6589ZM82.9272 14.2211L82.8472 14.1433C82.2055 14.8007 81.4209 15.1254 80.4653 15.1267C79.5093 15.1254 78.7247 14.8007 78.0843 14.1433L78.0813 14.1398L78.0843 14.1433C77.444 13.4836 77.128 12.6881 77.1271 11.7316C77.128 10.7752 77.444 9.97971 78.0843 9.32006C78.7247 8.66264 79.5093 8.33745 80.4653 8.33611C81.4147 8.33745 82.1976 8.66398 82.8428 9.32488C83.4854 9.98754 83.8032 10.7819 83.8045 11.7316C83.8032 12.6881 83.4862 13.4836 82.8472 14.1433L82.9272 14.2211L83.0077 14.2988C83.686 13.6021 84.029 12.7379 84.0283 11.7316C84.029 10.7311 83.6847 9.86874 83.0032 9.16888C82.3213 8.46636 81.4671 8.11108 80.4653 8.11231C79.4582 8.11108 78.6015 8.46468 77.924 9.16451V9.16406C77.2442 9.86121 76.9024 10.7254 76.9033 11.7316C76.9024 12.7379 77.2442 13.6021 77.924 14.2992L77.9269 14.3024L77.924 14.2988C78.6015 14.9986 79.4582 15.3515 80.4653 15.3505C81.472 15.3515 82.3287 14.9986 83.0077 14.2988L82.9272 14.2211Z" fill="white"/>
<path d="M85.1265 15.0886V8.37451H86.1765L89.4395 13.5976H89.4766L89.4395 12.3037V8.37451H90.3029V15.0886H89.4023L85.9885 9.61237H85.9513L85.9885 10.9068V15.0886H85.1265Z" fill="white"/>
<path d="M85.1275 15.0887H85.2394V8.4865H86.1153L89.3784 13.7096H89.4777H89.5926L89.5524 12.3021V8.4865H90.1919V14.9768H89.4655L86.0516 9.50055H85.9523H85.8374L85.8776 10.9086V14.9768H85.1275V15.0887H85.2394H85.1275V15.2006H85.9895H86.1014V10.905L86.0642 9.60943L85.9523 9.61246V9.72436H85.9895V9.61246L85.8946 9.67199L89.3413 15.2006H90.3038H90.4157V8.2627H89.4405H89.3286V12.3052L89.3658 13.6007L89.4777 13.5977V13.4858H89.4405V13.5977L89.5354 13.5383L86.2395 8.2627H85.1275H85.0156V15.2006H85.1275V15.0887Z" fill="white"/>
<path d="M120.221 34.1124H122.309V20.1234H120.221V34.1124ZM139.028 25.1625L136.634 31.2275H136.563L134.078 25.1625H131.829L135.554 33.6395L133.431 38.3546H135.609L141.35 25.1625H139.028ZM127.187 32.5235C126.501 32.5235 125.548 32.1817 125.548 31.3355C125.548 30.2557 126.736 29.8418 127.761 29.8418C128.681 29.8418 129.112 30.0398 129.67 30.31C129.508 31.6056 128.392 32.5235 127.187 32.5235ZM127.439 24.8565C125.927 24.8565 124.361 25.5227 123.713 26.9984L125.566 27.7721C125.962 26.9984 126.7 26.7462 127.474 26.7462C128.554 26.7462 129.651 27.3944 129.67 28.5463V28.69C129.292 28.4741 128.482 28.1502 127.492 28.1502C125.494 28.1502 123.461 29.2478 123.461 31.2996C123.461 33.1713 125.098 34.3774 126.933 34.3774C128.339 34.3774 129.112 33.7474 129.598 33.0096H129.67V34.0893H131.685V28.7259C131.685 26.2427 129.832 24.8565 127.439 24.8565ZM114.534 26.8655H111.564V22.0704H114.534C116.095 22.0704 116.981 23.3629 116.981 24.4679C116.981 25.5519 116.095 26.8655 114.534 26.8655ZM114.48 20.1234H109.477V34.1124H111.564V28.8125H114.48C116.794 28.8125 119.069 27.1369 119.069 24.4679C119.069 21.7989 116.794 20.1234 114.48 20.1234ZM87.1973 32.5261C85.7548 32.5261 84.547 31.3183 84.547 29.6596C84.547 27.9833 85.7548 26.7571 87.1973 26.7571C88.6215 26.7571 89.7392 27.9833 89.7392 29.6596C89.7392 31.3183 88.6215 32.5261 87.1973 32.5261ZM89.5949 25.9458H89.5227C89.0542 25.3872 88.1524 24.8823 87.0168 24.8823C84.6371 24.8823 82.4559 26.9735 82.4559 29.6596C82.4559 32.3277 84.6371 34.401 87.0168 34.401C88.1524 34.401 89.0542 33.896 89.5227 33.3195H89.5949V34.0045C89.5949 35.8256 88.6215 36.799 87.0531 36.799C85.7732 36.799 84.9799 35.8793 84.655 35.1043L82.8345 35.8614C83.3573 37.1233 84.7456 38.6738 87.0531 38.6738C89.5048 38.6738 91.5781 37.2312 91.5781 33.716V25.1708H89.5949V25.9458ZM93.0201 34.1124H95.1111V20.1229H93.0201V34.1124ZM98.194 29.4974C98.1399 27.6584 99.6189 26.7212 100.682 26.7212C101.512 26.7212 102.214 27.1356 102.448 27.731L98.194 29.4974ZM104.684 27.9111C104.288 26.8471 103.079 24.8823 100.61 24.8823C98.1576 24.8823 96.121 26.8113 96.121 29.6417C96.121 32.3098 98.1399 34.401 100.844 34.401C103.025 34.401 104.288 33.0668 104.811 32.2918L103.189 31.21C102.648 32.0034 101.908 32.5261 100.844 32.5261C99.7802 32.5261 99.0239 32.0393 98.5362 31.0841L104.9 28.4518L104.684 27.9111ZM53.9835 26.3426V28.3617H58.8149C58.6706 29.4974 58.2921 30.3266 57.7151 30.9036C57.0123 31.6069 55.9125 32.3819 53.9835 32.3819C51.0088 32.3819 48.6834 29.9843 48.6834 27.0097C48.6834 24.0351 51.0088 21.6372 53.9835 21.6372C55.588 21.6372 56.7596 22.2683 57.625 23.0796L59.0492 21.6555C57.8415 20.5015 56.2368 19.6182 53.9835 19.6182C49.909 19.6182 46.4839 22.9354 46.4839 27.0097C46.4839 31.0841 49.909 34.401 53.9835 34.401C56.1831 34.401 57.8415 33.6802 59.1392 32.3277C60.4734 30.9936 60.8882 29.1188 60.8882 27.6047C60.8882 27.1356 60.8523 26.7033 60.7797 26.3426H53.9835ZM66.381 32.5261C64.9385 32.5261 63.6945 31.3362 63.6945 29.6417C63.6945 27.929 64.9385 26.7571 66.381 26.7571C67.823 26.7571 69.067 27.929 69.067 29.6417C69.067 31.3362 67.823 32.5261 66.381 32.5261ZM66.381 24.8823C63.7487 24.8823 61.6032 26.8834 61.6032 29.6417C61.6032 32.3819 63.7487 34.401 66.381 34.401C69.0128 34.401 71.1582 32.3819 71.1582 29.6417C71.1582 26.8834 69.0128 24.8823 66.381 24.8823ZM76.8027 32.5261C75.3607 32.5261 74.1166 31.3362 74.1166 29.6417C74.1166 27.929 75.3607 26.7571 76.8027 26.7571C78.2447 26.7571 79.4888 27.929 79.4888 29.6417C79.4888 31.3362 78.2447 32.5261 76.8027 32.5261ZM76.8027 24.8823C74.1704 24.8823 72.0255 26.8834 72.0255 29.6417C72.0255 32.3819 74.1704 34.401 76.8027 34.401C79.4346 34.401 81.5799 32.3819 81.5799 29.6417C81.5799 26.8834 79.4346 24.8823 76.8027 24.8823Z" fill="white"/>
<path d="M12.3178 36.7858L12.2346 36.7063C11.909 36.3617 11.7168 35.8267 11.7168 35.134V35.297V10.5488C11.7168 10.5465 11.7168 10.5448 11.7168 10.5431C11.7168 10.5452 11.7168 10.547 11.7168 10.5492V10.7127C11.7168 9.96258 11.9409 9.39743 12.3164 9.05859L26.1809 22.9227L12.3178 36.7858ZM11.7168 10.5418C11.7168 10.4801 11.7185 10.4203 11.7216 10.3612C11.7185 10.4198 11.7168 10.4801 11.7168 10.5418ZM11.7216 10.3585C11.7216 10.3578 11.7216 10.3569 11.7219 10.356C11.7216 10.3569 11.7216 10.3578 11.7216 10.3585ZM11.7219 10.3507C11.7219 10.3503 11.7219 10.3499 11.7219 10.3494C11.7219 10.3499 11.7219 10.3503 11.7219 10.3507Z" fill="url(#paint0_linear_1_1942)"/>
<path d="M30.8023 27.7098L30.9078 27.6499L36.3831 24.5389C36.9051 24.2421 37.2529 23.8824 37.4266 23.5017C37.2534 23.8824 36.9054 24.2426 36.3831 24.5393L30.9078 27.6504L30.8023 27.7098ZM30.8037 27.5458L26.1816 22.9229L30.8033 18.3008L36.3831 21.4708C37.0916 21.8734 37.4894 22.3923 37.5559 22.9225C37.5559 22.9229 37.5559 22.9238 37.5559 22.9246C37.4894 23.4536 37.0916 23.9729 36.3831 24.3754L30.8037 27.5458Z" fill="url(#paint1_linear_1_1942)"/>
<path d="M13.3056 37.314C12.9183 37.314 12.5804 37.1881 12.3168 36.9503L12.3173 36.9498C12.5808 37.1876 12.9191 37.314 13.3065 37.314C13.3401 37.314 13.3742 37.3131 13.4087 37.3114C13.3738 37.3131 13.3392 37.314 13.3056 37.314ZM13.3061 37.1501C12.9188 37.1505 12.5808 37.0242 12.3173 36.7864V36.786L26.1804 22.9229L30.8025 27.5457L14.5596 36.7746C14.1103 37.0294 13.6845 37.1501 13.3061 37.1501ZM12.3134 36.9472C12.2889 36.925 12.2648 36.9014 12.2412 36.8769L12.3134 36.9472Z" fill="url(#paint2_linear_1_1942)"/>
<path d="M26.1804 22.923L12.3159 9.05895C12.5794 8.82161 12.917 8.69571 13.3038 8.69571C13.6833 8.69571 14.1094 8.81679 14.5597 9.07204L30.802 18.3009L26.1804 22.923ZM30.9065 18.1965L14.5597 8.90866C14.1094 8.6533 13.6833 8.53223 13.3038 8.53223C13.3021 8.53223 13.3008 8.53223 13.299 8.53223C13.3012 8.53223 13.3029 8.53223 13.3056 8.53223C13.6842 8.53223 14.1099 8.65286 14.5597 8.90822L30.9065 18.1965Z" fill="url(#paint3_linear_1_1942)"/>
<path d="M13.4086 37.3117C13.7604 37.2916 14.1499 37.1704 14.5595 36.9384L30.8009 27.71L14.5595 36.9384C14.1502 37.1709 13.7604 37.2916 13.4086 37.3117ZM12.3166 36.9505L12.3132 36.9475C12.3144 36.9485 12.3158 36.9497 12.3166 36.9505ZM12.241 36.8771L12.2339 36.8702V36.8698C12.2366 36.8724 12.2387 36.8749 12.241 36.8771Z" fill="black"/>
<path d="M30.8022 27.7093L30.9077 27.6494L30.8022 27.7093Z" fill="url(#paint4_linear_1_1942)"/>
<path d="M13.3063 37.3142C12.919 37.3142 12.5806 37.1878 12.3171 36.95L12.3166 36.9505C12.3158 36.9496 12.3144 36.9484 12.3132 36.9474L12.241 36.8771C12.2387 36.8749 12.2366 36.8723 12.2339 36.8697L12.3171 36.7866C12.5806 37.0244 12.9185 37.1507 13.3058 37.1502C13.6843 37.1502 14.1101 37.0296 14.5595 36.7748L30.8022 27.5459L30.9063 27.65L30.8009 27.7098L14.5595 36.9383C14.1499 37.1704 13.7604 37.2914 13.4086 37.3116C13.374 37.3132 13.3399 37.3142 13.3063 37.3142Z" fill="url(#paint5_linear_1_1942)"/>
<path d="M12.2346 36.8697C11.909 36.5251 11.7168 35.9901 11.7168 35.2973V35.2969C11.7168 35.9901 11.909 36.5246 12.2346 36.8692V36.8697Z" fill="black"/>
<path d="M12.2346 36.8692C11.909 36.5246 11.7168 35.9901 11.7168 35.2969V35.1338C11.7168 35.8266 11.909 36.3616 12.2346 36.7062L12.3178 36.7857L12.2346 36.8692Z" fill="url(#paint6_linear_1_1942)"/>
<path d="M12.2339 36.8696L12.3171 36.7861V36.7864L12.2339 36.8696Z" fill="url(#paint7_linear_1_1942)"/>
<path d="M37.4263 23.5017C37.5122 23.3128 37.5556 23.1187 37.5556 22.9246C37.5556 22.9243 37.5556 22.9238 37.5556 22.9238C37.5556 23.1183 37.5122 23.3123 37.4263 23.5017Z" fill="black"/>
<path d="M30.9063 27.6491L30.8022 27.545L36.3816 24.3746C37.0902 23.9721 37.488 23.4528 37.5544 22.9238C37.5544 23.118 37.5111 23.312 37.4251 23.5009C37.2515 23.8816 36.9036 24.2414 36.3816 24.5381L30.9063 27.6491Z" fill="url(#paint8_linear_1_1942)"/>
<path d="M37.5543 22.9228V22.9224C37.5538 22.337 37.1627 21.7518 36.3814 21.3076L30.9062 18.1967H30.9058L30.9062 18.1963L36.3814 21.3072C37.1635 21.7513 37.5552 22.3375 37.5543 22.9228Z" fill="#404040"/>
<path d="M37.5549 22.922C37.4884 22.3918 37.0907 21.8729 36.382 21.4703L30.8022 18.3004L30.9063 18.1963H30.9068L36.382 21.3073C37.1632 21.7514 37.5544 22.3367 37.5549 22.922Z" fill="url(#paint9_linear_1_1942)"/>
<path d="M11.7168 10.5434C11.7168 10.543 11.7168 10.5425 11.7168 10.542C11.7168 10.5425 11.7168 10.543 11.7168 10.5434ZM11.7216 10.3616C11.7216 10.3607 11.7216 10.3598 11.7216 10.3589C11.7216 10.3598 11.7216 10.3607 11.7216 10.3616ZM11.7219 10.3563C11.7219 10.3545 11.7219 10.3528 11.7219 10.3511C11.7219 10.3528 11.7219 10.3545 11.7219 10.3563ZM11.7219 10.3498C11.7867 9.20017 12.4118 8.53614 13.296 8.53223C12.9127 8.53446 12.5787 8.66035 12.3173 8.89591V8.89546L12.3142 8.89859C12.2867 8.92344 12.2605 8.94973 12.2346 8.97681C11.9409 9.28756 11.7556 9.75308 11.7219 10.3498Z" fill="#404040"/>
<path d="M11.7168 10.7126V10.5491C11.7168 10.5469 11.7168 10.5451 11.7168 10.543C11.7168 10.5425 11.7168 10.5421 11.7168 10.5417C11.7168 10.48 11.7185 10.4197 11.7216 10.3611C11.7216 10.3602 11.7216 10.3594 11.7216 10.3584C11.7216 10.3577 11.7216 10.3568 11.7219 10.3559C11.7219 10.3541 11.7219 10.3524 11.7219 10.3506C11.7219 10.3501 11.7219 10.3498 11.7219 10.3493C11.7556 9.75264 11.9409 9.28712 12.2346 8.97637L12.3164 9.05851C11.9409 9.39735 11.7168 9.9624 11.7168 10.7126ZM12.3142 8.89815L12.3173 8.89502C12.3164 8.89636 12.3151 8.89726 12.3142 8.89815Z" fill="url(#paint10_linear_1_1942)"/>
<path d="M30.8018 18.3009L14.5595 9.07204C14.1092 8.81679 13.683 8.69571 13.3036 8.69571C12.9168 8.69571 12.5793 8.8216 12.3158 9.05895L12.2339 8.97681C12.2598 8.94973 12.2859 8.92343 12.3135 8.89859C12.3144 8.8977 12.3158 8.8968 12.3166 8.89591C12.578 8.66035 12.9119 8.53446 13.2953 8.53223C13.2962 8.53223 13.2974 8.53223 13.2988 8.53223C13.3006 8.53223 13.3018 8.53223 13.3036 8.53223C13.683 8.53223 14.1092 8.6533 14.5595 8.90866L30.9063 18.1965L30.9058 18.1968L30.8018 18.3009Z" fill="url(#paint11_linear_1_1942)"/>
<path d="M144.165 1.00781H8.0173C4.1547 1.00781 1.02344 4.13907 1.02344 8.00168V37.8422C1.02344 41.7048 4.1547 44.836 8.0173 44.836H144.165C148.027 44.836 151.158 41.7048 151.158 37.8422V8.00168C151.158 4.13907 148.027 1.00781 144.165 1.00781Z" stroke="#A6A6A6" stroke-width="0.932515"/>
</g>
<defs>
<linearGradient id="paint0_linear_1_1942" x1="24.9515" y1="10.2878" x2="6.17157" y2="29.0677" gradientUnits="userSpaceOnUse">
<stop stop-color="#00A0FF"/>
<stop offset="0.00657445" stop-color="#00A1FF"/>
<stop offset="0.2601" stop-color="#00BEFF"/>
<stop offset="0.5122" stop-color="#00D2FF"/>
<stop offset="0.7604" stop-color="#00DFFF"/>
<stop offset="1" stop-color="#00E3FF"/>
</linearGradient>
<linearGradient id="paint1_linear_1_1942" x1="38.4192" y1="22.9236" x2="11.3423" y2="22.9236" gradientUnits="userSpaceOnUse">
<stop stop-color="#FFE000"/>
<stop offset="0.4087" stop-color="#FFBD00"/>
<stop offset="0.7754" stop-color="#FFA500"/>
<stop offset="1" stop-color="#FF9C00"/>
</linearGradient>
<linearGradient id="paint2_linear_1_1942" x1="28.3385" y1="25.4913" x2="2.87152" y2="50.9583" gradientUnits="userSpaceOnUse">
<stop stop-color="#FF3A44"/>
<stop offset="1" stop-color="#C31162"/>
</linearGradient>
<linearGradient id="paint3_linear_1_1942" x1="8.72244" y1="0.738934" x2="20.0945" y2="12.111" gradientUnits="userSpaceOnUse">
<stop stop-color="#32A071"/>
<stop offset="0.0685" stop-color="#2DA771"/>
<stop offset="0.4762" stop-color="#15CF74"/>
<stop offset="0.8009" stop-color="#06E775"/>
<stop offset="1" stop-color="#00F076"/>
</linearGradient>
<linearGradient id="paint4_linear_1_1942" x1="38.4189" y1="22.9231" x2="11.3428" y2="22.9231" gradientUnits="userSpaceOnUse">
<stop stop-color="#CCB300"/>
<stop offset="0.4087" stop-color="#CC9700"/>
<stop offset="0.7754" stop-color="#CC8400"/>
<stop offset="1" stop-color="#CC7D00"/>
</linearGradient>
<linearGradient id="paint5_linear_1_1942" x1="28.3382" y1="25.4915" x2="2.87132" y2="50.9585" gradientUnits="userSpaceOnUse">
<stop stop-color="#CC2E36"/>
<stop offset="1" stop-color="#9C0E4E"/>
</linearGradient>
<linearGradient id="paint6_linear_1_1942" x1="24.9515" y1="10.2876" x2="6.17155" y2="29.0675" gradientUnits="userSpaceOnUse">
<stop stop-color="#008DE0"/>
<stop offset="0.00657445" stop-color="#008DE0"/>
<stop offset="0.2601" stop-color="#00A7E0"/>
<stop offset="0.5122" stop-color="#00B8E0"/>
<stop offset="0.7604" stop-color="#00C4E0"/>
<stop offset="1" stop-color="#00C7E0"/>
</linearGradient>
<linearGradient id="paint7_linear_1_1942" x1="28.3385" y1="25.4914" x2="2.87138" y2="50.9587" gradientUnits="userSpaceOnUse">
<stop stop-color="#E0333C"/>
<stop offset="1" stop-color="#AB0F56"/>
</linearGradient>
<linearGradient id="paint8_linear_1_1942" x1="38.4177" y1="22.9228" x2="11.3409" y2="22.9228" gradientUnits="userSpaceOnUse">
<stop stop-color="#E0C500"/>
<stop offset="0.4087" stop-color="#E0A600"/>
<stop offset="0.7754" stop-color="#E09100"/>
<stop offset="1" stop-color="#E08900"/>
</linearGradient>
<linearGradient id="paint9_linear_1_1942" x1="38.4182" y1="22.9231" x2="11.3413" y2="22.9231" gradientUnits="userSpaceOnUse">
<stop stop-color="#FFE840"/>
<stop offset="0.4087" stop-color="#FFCE40"/>
<stop offset="0.7754" stop-color="#FFBC40"/>
<stop offset="1" stop-color="#FFB540"/>
</linearGradient>
<linearGradient id="paint10_linear_1_1942" x1="24.9514" y1="10.2877" x2="6.17157" y2="29.0675" gradientUnits="userSpaceOnUse">
<stop stop-color="#40B8FF"/>
<stop offset="0.00657445" stop-color="#40B9FF"/>
<stop offset="0.2601" stop-color="#40CEFF"/>
<stop offset="0.5122" stop-color="#40DDFF"/>
<stop offset="0.7604" stop-color="#40E7FF"/>
<stop offset="1" stop-color="#40EAFF"/>
</linearGradient>
<linearGradient id="paint11_linear_1_1942" x1="8.72222" y1="0.738939" x2="20.0942" y2="12.111" gradientUnits="userSpaceOnUse">
<stop stop-color="#65B895"/>
<stop offset="0.0685" stop-color="#62BD95"/>
<stop offset="0.4762" stop-color="#50DB97"/>
<stop offset="0.8009" stop-color="#44ED98"/>
<stop offset="1" stop-color="#40F498"/>
</linearGradient>
<clipPath id="clip0_1_1942">
<rect width="152" height="45" fill="white" transform="translate(0 0.421875)"/>
</clipPath>
</defs>
</svg>
