<svg width="137" height="15" viewBox="0 0 137 15" fill="none" xmlns="http://www.w3.org/2000/svg">
<g clip-path="url(#clip0_1_1498)">
<path d="M3.37381 14.4733L3.37385 14.4732L3.36772 14.4687C3.32217 14.4349 3.30339 14.4034 3.29456 14.3509C3.28287 14.2814 3.28761 14.1521 3.3618 13.9396H3.36181L3.36276 13.9368L4.86852 9.54076L4.98997 9.18621L4.68372 8.97017L0.836473 6.2562L0.836479 6.25619L0.833937 6.25442C0.643497 6.12184 0.555772 6.0175 0.520544 5.95123C0.495562 5.90424 0.495407 5.87871 0.509165 5.83904L0.510147 5.83615C0.523025 5.79825 0.542164 5.77049 0.59926 5.74203C0.671121 5.70622 0.806965 5.6705 1.039 5.67346L1.04237 5.67348L5.76137 5.70177L6.12705 5.70396L6.23994 5.35613L7.67324 0.940157C7.7464 0.71931 7.82187 0.605668 7.87634 0.551868C7.91727 0.511449 7.94857 0.5 7.9978 0.5C8.05323 0.5 8.08627 0.513343 8.12675 0.553054C8.18112 0.606384 8.25637 0.719241 8.32957 0.940201C8.3297 0.940619 8.32984 0.941037 8.32998 0.941455L9.76285 5.35613L9.87574 5.70396L10.2414 5.70177L14.9604 5.67349L14.9638 5.67345C15.1958 5.6705 15.3317 5.70622 15.4035 5.74204C15.4592 5.76978 15.4788 5.79686 15.4916 5.83331C15.5052 5.87639 15.5033 5.90607 15.4785 5.95314C15.4438 6.01918 15.3577 6.12294 15.1689 6.2544L15.1688 6.25439L15.1663 6.2562L11.3191 8.97017L11.0128 9.18621L11.1343 9.54076L12.64 13.9368L12.641 13.9396C12.7152 14.1521 12.7199 14.2814 12.7082 14.3509C12.6994 14.4034 12.6806 14.4349 12.6351 14.4687L12.6336 14.4698C12.5971 14.4971 12.5688 14.506 12.5108 14.4964C12.4313 14.4831 12.3002 14.4314 12.1072 14.2941C12.1069 14.2938 12.1066 14.2936 12.1062 14.2934L8.28996 11.5456L7.99753 11.335L7.70528 11.5459L3.89658 14.2934C3.89617 14.2936 3.89577 14.2939 3.89536 14.2942C3.70372 14.4305 3.57077 14.4828 3.48966 14.4963C3.42871 14.5064 3.40327 14.4958 3.37381 14.4733Z" fill="#FF9D48" stroke="#FF9D48"/>
</g>
<g clip-path="url(#clip1_1_1498)">
<path d="M25.3738 14.4733L25.3739 14.4732L25.3677 14.4687C25.3222 14.4349 25.3034 14.4034 25.2946 14.3509C25.2829 14.2814 25.2876 14.1521 25.3618 13.9396H25.3618L25.3628 13.9368L26.8685 9.54076L26.99 9.18621L26.6837 8.97017L22.8365 6.2562L22.8365 6.25619L22.8339 6.25442C22.6435 6.12184 22.5558 6.0175 22.5205 5.95123C22.4956 5.90424 22.4954 5.87871 22.5092 5.83904L22.5101 5.83615C22.523 5.79825 22.5422 5.77049 22.5993 5.74203C22.6711 5.70622 22.807 5.6705 23.039 5.67346L23.0424 5.67348L27.7614 5.70177L28.1271 5.70396L28.2399 5.35613L29.6732 0.940157C29.7464 0.71931 29.8219 0.605668 29.8763 0.551868C29.9173 0.511449 29.9486 0.5 29.9978 0.5C30.0532 0.5 30.0863 0.513343 30.1268 0.553054C30.1811 0.606384 30.2564 0.719241 30.3296 0.940201C30.3297 0.940619 30.3298 0.941037 30.33 0.941455L31.7629 5.35613L31.8757 5.70396L32.2414 5.70177L36.9604 5.67349L36.9638 5.67345C37.1958 5.6705 37.3317 5.70622 37.4035 5.74204C37.4592 5.76978 37.4788 5.79686 37.4916 5.83331C37.5052 5.87639 37.5033 5.90607 37.4785 5.95314C37.4438 6.01918 37.3577 6.12294 37.1689 6.2544L37.1688 6.25439L37.1663 6.2562L33.3191 8.97017L33.0128 9.18621L33.1343 9.54076L34.64 13.9368L34.641 13.9396C34.7152 14.1521 34.7199 14.2814 34.7082 14.3509C34.6994 14.4034 34.6806 14.4349 34.6351 14.4687L34.6336 14.4698C34.5971 14.4971 34.5688 14.506 34.5108 14.4964C34.4313 14.4831 34.3002 14.4314 34.1072 14.2941C34.1069 14.2938 34.1066 14.2936 34.1062 14.2934L30.29 11.5456L29.9975 11.335L29.7053 11.5459L25.8966 14.2934C25.8962 14.2936 25.8958 14.2939 25.8954 14.2942C25.7037 14.4305 25.5708 14.4828 25.4897 14.4963C25.4287 14.5064 25.4033 14.4958 25.3738 14.4733Z" fill="#FF9D48" stroke="#FF9D48"/>
</g>
<g clip-path="url(#clip2_1_1498)">
<path d="M47.3738 14.4733L47.3739 14.4732L47.3677 14.4687C47.3222 14.4349 47.3034 14.4034 47.2946 14.3509C47.2829 14.2814 47.2876 14.1521 47.3618 13.9396H47.3618L47.3628 13.9368L48.8685 9.54076L48.99 9.18621L48.6837 8.97017L44.8365 6.2562L44.8365 6.25619L44.8339 6.25442C44.6435 6.12184 44.5558 6.0175 44.5205 5.95123C44.4956 5.90424 44.4954 5.87871 44.5092 5.83904L44.5101 5.83615C44.523 5.79825 44.5422 5.77049 44.5993 5.74203C44.6711 5.70622 44.807 5.6705 45.039 5.67346L45.0424 5.67348L49.7614 5.70177L50.1271 5.70396L50.2399 5.35613L51.6732 0.940157C51.7464 0.71931 51.8219 0.605668 51.8763 0.551868C51.9173 0.511449 51.9486 0.5 51.9978 0.5C52.0532 0.5 52.0863 0.513343 52.1268 0.553054C52.1811 0.606384 52.2564 0.719241 52.3296 0.940201C52.3297 0.940619 52.3298 0.941037 52.33 0.941455L53.7629 5.35613L53.8757 5.70396L54.2414 5.70177L58.9604 5.67349L58.9638 5.67345C59.1958 5.6705 59.3317 5.70622 59.4035 5.74204C59.4592 5.76978 59.4788 5.79686 59.4916 5.83331C59.5052 5.87639 59.5033 5.90607 59.4785 5.95314C59.4438 6.01918 59.3577 6.12294 59.1689 6.2544L59.1688 6.25439L59.1663 6.2562L55.3191 8.97017L55.0128 9.18621L55.1343 9.54076L56.64 13.9368L56.641 13.9396C56.7152 14.1521 56.7199 14.2814 56.7082 14.3509C56.6994 14.4034 56.6806 14.4349 56.6351 14.4687L56.6336 14.4698C56.5971 14.4971 56.5688 14.506 56.5108 14.4964C56.4313 14.4831 56.3002 14.4314 56.1072 14.2941C56.1069 14.2938 56.1066 14.2936 56.1062 14.2934L52.29 11.5456L51.9975 11.335L51.7053 11.5459L47.8966 14.2934C47.8962 14.2936 47.8958 14.2939 47.8954 14.2942C47.7037 14.4305 47.5708 14.4828 47.4897 14.4963C47.4287 14.5064 47.4033 14.4958 47.3738 14.4733Z" fill="#FF9D48" stroke="#FF9D48"/>
</g>
<g clip-path="url(#clip3_1_1498)">
<path d="M69.3738 14.4733L69.3739 14.4732L69.3677 14.4687C69.3222 14.4349 69.3034 14.4034 69.2946 14.3509C69.2829 14.2814 69.2876 14.1521 69.3618 13.9396H69.3618L69.3628 13.9368L70.8685 9.54076L70.99 9.18621L70.6837 8.97017L66.8365 6.2562L66.8365 6.25619L66.8339 6.25442C66.6435 6.12184 66.5558 6.0175 66.5205 5.95123C66.4956 5.90424 66.4954 5.87871 66.5092 5.83904L66.5101 5.83615C66.523 5.79825 66.5422 5.77049 66.5993 5.74203C66.6711 5.70622 66.807 5.6705 67.039 5.67346L67.0424 5.67348L71.7614 5.70177L72.1271 5.70396L72.2399 5.35613L73.6732 0.940157C73.7464 0.71931 73.8219 0.605668 73.8763 0.551868C73.9173 0.511449 73.9486 0.5 73.9978 0.5C74.0532 0.5 74.0863 0.513343 74.1268 0.553054C74.1811 0.606384 74.2564 0.719241 74.3296 0.940201C74.3297 0.940619 74.3298 0.941037 74.33 0.941455L75.7629 5.35613L75.8757 5.70396L76.2414 5.70177L80.9604 5.67349L80.9638 5.67345C81.1958 5.6705 81.3317 5.70622 81.4035 5.74204C81.4592 5.76978 81.4788 5.79686 81.4916 5.83331C81.5052 5.87639 81.5033 5.90607 81.4785 5.95314C81.4438 6.01918 81.3577 6.12294 81.1689 6.2544L81.1688 6.25439L81.1663 6.2562L77.3191 8.97017L77.0128 9.18621L77.1343 9.54076L78.64 13.9368L78.641 13.9396C78.7152 14.1521 78.7199 14.2814 78.7082 14.3509C78.6994 14.4034 78.6806 14.4349 78.6351 14.4687L78.6336 14.4698C78.5971 14.4971 78.5688 14.506 78.5108 14.4964C78.4313 14.4831 78.3002 14.4314 78.1072 14.2941C78.1069 14.2938 78.1066 14.2936 78.1062 14.2934L74.29 11.5456L73.9975 11.335L73.7053 11.5459L69.8966 14.2934C69.8962 14.2936 69.8958 14.2939 69.8954 14.2942C69.7037 14.4305 69.5708 14.4828 69.4897 14.4963C69.4287 14.5064 69.4033 14.4958 69.3738 14.4733Z" fill="#FF9D48" stroke="#FF9D48"/>
</g>
<g clip-path="url(#clip4_1_1498)">
<path d="M91.3738 14.4733L91.3739 14.4732L91.3677 14.4687C91.3222 14.4349 91.3034 14.4034 91.2946 14.3509C91.2829 14.2814 91.2876 14.1521 91.3618 13.9396H91.3618L91.3628 13.9368L92.8685 9.54076C92.9405 9.33063 92.8652 9.09821 92.6837 8.97017L88.8365 6.2562L88.8365 6.25619L88.8339 6.25442C88.6435 6.12184 88.5558 6.0175 88.5205 5.95123C88.4956 5.90424 88.4954 5.87871 88.5092 5.83904L88.5101 5.83615C88.523 5.79825 88.5422 5.77049 88.5993 5.74203C88.6711 5.70622 88.807 5.6705 89.039 5.67346L89.0424 5.67348L93.7614 5.70177C93.9791 5.70307 94.1727 5.56327 94.2399 5.35613L95.6732 0.940157C95.7464 0.71931 95.8219 0.605668 95.8763 0.551868C95.9173 0.511449 95.9486 0.5 95.9978 0.5C96.0532 0.5 96.0863 0.513343 96.1268 0.553054C96.1811 0.606384 96.2564 0.719241 96.3296 0.940201C96.3297 0.940619 96.3298 0.941037 96.33 0.941455L97.7629 5.35613C97.8301 5.56327 98.0236 5.70307 98.2414 5.70177L102.96 5.67349L102.964 5.67345C103.196 5.6705 103.332 5.70622 103.404 5.74204C103.459 5.76978 103.479 5.79686 103.492 5.83331C103.505 5.87639 103.503 5.90607 103.479 5.95314C103.444 6.01918 103.358 6.12294 103.169 6.2544L103.169 6.25439L103.166 6.2562L99.3191 8.97017C99.1376 9.09821 99.0623 9.33063 99.1343 9.54076L100.64 13.9368L100.641 13.9396C100.715 14.1521 100.72 14.2814 100.708 14.3509C100.699 14.4034 100.681 14.4349 100.635 14.4687L100.634 14.4698C100.597 14.4971 100.569 14.506 100.511 14.4964C100.431 14.4831 100.3 14.4314 100.107 14.2941C100.107 14.2938 100.107 14.2936 100.106 14.2934L96.29 11.5456C96.1153 11.4198 95.8798 11.42 95.7053 11.5459L91.8966 14.2934C91.8962 14.2937 91.8957 14.294 91.8953 14.2942C91.7037 14.4305 91.5708 14.4828 91.4897 14.4963C91.4287 14.5064 91.4033 14.4958 91.3738 14.4733Z" stroke="#FF9D48" stroke-linejoin="round"/>
<mask id="mask0_1_1498" style="mask-type:alpha" maskUnits="userSpaceOnUse" x="88" y="0" width="16" height="16">
<path d="M91.3738 14.4733L91.3739 14.4732L91.3677 14.4687C91.3222 14.4349 91.3034 14.4034 91.2946 14.3509C91.2829 14.2814 91.2876 14.1521 91.3618 13.9396H91.3618L91.3628 13.9368L92.8685 9.54076C92.9405 9.33063 92.8652 9.09821 92.6837 8.97017L88.8365 6.2562L88.8365 6.25619L88.8339 6.25442C88.6435 6.12184 88.5558 6.0175 88.5205 5.95123C88.4956 5.90424 88.4954 5.87871 88.5092 5.83904L88.5101 5.83615C88.523 5.79825 88.5422 5.77049 88.5993 5.74203C88.6711 5.70622 88.807 5.6705 89.039 5.67346L89.0424 5.67348L93.7614 5.70177C93.9791 5.70307 94.1727 5.56327 94.2399 5.35613L95.6732 0.940216C95.7464 0.71933 95.8219 0.605672 95.8763 0.551868C95.9173 0.511449 95.9486 0.5 95.9978 0.5C96.0532 0.5 96.0863 0.513343 96.1268 0.553054C96.1811 0.606385 96.2564 0.719246 96.3296 0.940216C96.3297 0.940629 96.3298 0.941042 96.33 0.941455L97.7629 5.35613C97.8301 5.56327 98.0236 5.70307 98.2414 5.70177L102.96 5.67349L102.964 5.67345C103.196 5.6705 103.332 5.70622 103.404 5.74204C103.459 5.76978 103.479 5.79685 103.492 5.83329C103.505 5.87638 103.503 5.90606 103.479 5.95314C103.444 6.01918 103.358 6.12294 103.169 6.2544L103.169 6.25439L103.166 6.2562L99.3191 8.97017C99.1376 9.09821 99.0623 9.33063 99.1343 9.54076L100.64 13.9368L100.641 13.9396C100.715 14.1521 100.72 14.2814 100.708 14.3509C100.699 14.4034 100.681 14.4349 100.635 14.4687L100.634 14.4698C100.597 14.4971 100.569 14.506 100.511 14.4964C100.431 14.4831 100.3 14.4314 100.107 14.2941C100.107 14.2938 100.107 14.2936 100.106 14.2934L96.29 11.5456C96.1153 11.4198 95.8798 11.42 95.7053 11.5459L91.8966 14.2934C91.8962 14.2936 91.8958 14.2939 91.8954 14.2942C91.7037 14.4305 91.5708 14.4828 91.4897 14.4963C91.4287 14.5064 91.4033 14.4958 91.3738 14.4733Z" fill="white" stroke="white" stroke-linejoin="round"/>
</mask>
<g mask="url(#mask0_1_1498)">
<path d="M95.8813 0.75H87.1875V15.5H95.8813V0.75Z" fill="#FF9D48" stroke="#FF9D48" stroke-width="1.5"/>
</g>
</g>
<defs>
<clipPath id="clip0_1_1498">
<rect width="16" height="15" fill="white"/>
</clipPath>
<clipPath id="clip1_1_1498">
<rect width="16" height="15" fill="white" transform="translate(22)"/>
</clipPath>
<clipPath id="clip2_1_1498">
<rect width="16" height="15" fill="white" transform="translate(44)"/>
</clipPath>
<clipPath id="clip3_1_1498">
<rect width="16" height="15" fill="white" transform="translate(66)"/>
</clipPath>
<clipPath id="clip4_1_1498">
<rect width="16" height="15" fill="white" transform="translate(88)"/>
</clipPath>
</defs>
</svg>
