<svg width="288" height="63" viewBox="0 0 288 63" fill="none" xmlns="http://www.w3.org/2000/svg">
<g clip-path="url(#clip0_1_1759)">
<path d="M287.938 0.922852H0V62.6237H287.938V0.922852Z" fill="white"/>
<path d="M0.431196 20.5239C1.27465 18.8733 3.39616 18.0556 5.14323 18.6355C6.23599 18.9812 7.12241 19.86 7.53984 20.9202C9.87245 26.4357 12.2155 31.9472 14.5472 37.4626C14.6112 37.345 14.6724 37.2256 14.7258 37.1024C16.5178 32.8546 18.3241 28.6116 20.1247 24.3666C20.9873 22.3712 22.3818 20.5248 24.3324 19.4941C25.4166 18.9153 26.6296 18.5981 27.8503 18.4979C31.0092 18.1531 34.2216 19.6585 36.1942 22.1076C38.0272 20.5363 40.1429 19.1999 42.5224 18.6613C43.809 18.3642 45.1453 18.4215 46.4464 18.581C48.073 18.7921 49.6806 19.3528 50.9884 20.3615C51.6475 20.8572 52.2148 21.4647 52.7277 22.1086C54.9868 19.925 58.0378 18.4826 61.2081 18.4501C63.2284 18.4072 65.2706 18.944 66.9709 20.0462C68.9281 21.2919 70.3761 23.3093 70.9025 25.5722C71.1604 26.6162 71.1719 27.6984 71.169 28.7673C71.169 33.3522 71.1681 37.9372 71.1699 42.5222C71.1575 43.1327 71.1347 43.7516 70.9665 44.3429C70.6723 45.4748 69.9206 46.5255 68.8268 46.9954C67.287 47.668 65.2572 47.4158 64.1377 46.09C63.236 45.0708 63.0086 43.6503 63.0478 42.3322C63.0498 38.0662 63.0478 33.8003 63.0487 29.5343C63.0478 28.4273 62.6409 27.2963 61.8251 26.5293C61.0792 25.8157 60.0389 25.4633 59.0159 25.4556C57.8792 25.427 56.7033 25.7871 55.8666 26.578C55.0623 27.3278 54.6306 28.4349 54.6382 29.5276C54.6382 33.9226 54.6391 38.3165 54.6373 42.7113C54.6315 43.85 54.3689 45.0345 53.6419 45.9381C53.0678 46.6784 52.1938 47.1627 51.2701 47.2954C50.2394 47.4453 49.1247 47.2945 48.2583 46.6879C47.4779 46.1539 46.9612 45.3 46.7186 44.3973C46.4702 43.5405 46.5113 42.6398 46.5103 41.7581C46.5103 37.6822 46.5094 33.6073 46.5113 29.5314C46.5017 28.518 46.1684 27.4854 45.4816 26.727C44.7117 25.8616 43.533 25.4432 42.3915 25.4546C41.2424 25.446 40.0551 25.8339 39.2413 26.6678C38.4618 27.4367 38.0845 28.5447 38.0864 29.627C38.0864 34.0534 38.0854 38.4808 38.0864 42.9072C38.0787 44.0248 37.7597 45.1768 37.0252 46.0393C36.4864 46.6831 35.7156 47.1177 34.8922 47.2678C33.7097 47.4865 32.3896 47.2849 31.4562 46.4835C30.4294 45.6114 29.9882 44.2245 29.9843 42.9101C29.9805 37.5247 29.9843 32.1401 29.9824 26.7556C29.9929 26.3344 29.7875 25.9094 29.4245 25.6867C28.8696 25.3143 27.9955 25.4938 27.73 26.1366C25.2045 31.6386 22.6751 37.1387 20.1534 42.6427C19.6041 43.7879 19.0242 44.9475 18.1531 45.8875C17.5188 46.5733 16.6735 47.0662 15.7517 47.2372C14.3036 47.5141 12.6865 47.3155 11.5088 46.3698C10.265 45.3697 9.54769 43.8968 8.89242 42.4792C6.03825 36.2628 3.17455 30.051 0.325168 23.8337C-0.13142 22.7877 -0.117093 21.5335 0.431196 20.5239Z" fill="#050038"/>
<path d="M166.767 19.398C168.645 18.887 170.637 18.8315 172.548 19.185C174.67 19.5757 176.682 20.5701 178.255 22.0497C181.206 24.7892 182.594 28.91 182.532 32.8759C182.481 33.7986 181.644 34.6097 180.714 34.5915C174.232 34.5934 167.749 34.5906 161.266 34.5924C161.415 36.4704 162.025 38.3292 163.097 39.8852C164.156 41.4279 165.712 42.6238 167.481 43.2342C169.307 43.8847 171.315 43.921 173.198 43.5064C174.992 43.1081 176.652 42.1988 178.029 40.9914C178.345 40.722 178.636 40.3972 179.04 40.2578C179.741 39.9903 180.585 40.2769 181.017 40.8815C181.489 41.4966 181.448 42.4452 180.912 43.0098C179.59 44.3508 178.042 45.4952 176.3 46.2288C174.529 46.9825 172.595 47.289 170.677 47.2986C168.659 47.3053 166.629 46.8869 164.808 46.0101C161.648 44.5314 159.189 41.7002 158.066 38.4085C157.248 36.094 157.049 33.5895 157.315 31.1585C157.699 27.7904 159.208 24.5055 161.727 22.2034C163.153 20.8871 164.892 19.91 166.767 19.398ZM166.774 23.0479C165.135 23.7709 163.783 25.0614 162.868 26.5917C161.946 28.0989 161.442 29.8346 161.249 31.5825C161.716 31.615 162.185 31.5921 162.654 31.5988C167.94 31.6007 173.228 31.5941 178.514 31.6017C178.523 31.1432 178.429 30.6923 178.358 30.2415C178.028 28.4238 177.333 26.6385 176.154 25.1999C175.105 23.9037 173.616 22.9724 171.991 22.5989C170.262 22.2082 168.4 22.3181 166.774 23.0479Z" fill="#050038"/>
<path d="M74.387 19.1033C75.0556 18.918 75.8389 19.0614 76.3374 19.5628C76.6278 19.836 76.8341 20.1875 76.9679 20.561C79.2795 27.2456 81.5844 33.9329 83.8864 40.6213C84.2169 39.8256 84.4568 38.9936 84.7577 38.1856C86.7874 32.312 88.822 26.4413 90.8623 20.5715C91.0887 19.8904 91.5998 19.2467 92.3295 19.0872C93.045 18.9382 93.8693 19.0184 94.4367 19.518C94.7959 19.8227 95.0184 20.2506 95.1722 20.689C97.3463 26.9944 99.5117 33.3035 101.682 39.6107C101.81 39.946 101.893 40.2994 102.054 40.6222C104.395 33.8823 106.745 27.1452 109.096 20.4101C109.275 19.9296 109.591 19.4779 110.057 19.2409C110.753 18.8856 111.651 18.9773 112.263 19.4625C112.832 19.8943 113.113 20.6699 112.936 21.3644C112.806 21.8753 112.608 22.3655 112.433 22.8611C109.902 29.9087 107.351 36.9504 104.816 43.997C104.615 44.5328 104.443 45.0802 104.219 45.6075C103.916 46.2761 103.342 46.8683 102.606 47.0298C101.898 47.1683 101.094 47.0603 100.549 46.5531C99.953 46.0326 99.7725 45.234 99.5165 44.5205C97.3634 38.3021 95.199 32.0875 93.0411 25.871C93.0144 25.8175 92.96 25.7115 92.9332 25.658C92.0793 27.9916 91.2884 30.35 90.4554 32.6921C89.0351 36.746 87.6166 40.8009 86.2009 44.8576C86.0051 45.4193 85.8293 46.022 85.388 46.45C84.8044 47.0794 83.8368 47.218 83.043 46.9696C82.2692 46.7213 81.7363 46.0153 81.4774 45.2722C78.7341 37.6114 75.9735 29.9573 73.2321 22.2956C73.0802 21.8544 72.8854 21.4092 72.9092 20.9336C72.9045 20.0796 73.576 19.3116 74.387 19.1033Z" fill="#050038"/>
<path d="M122.909 19.1214C125.084 18.9695 127.3 18.9561 129.432 19.4691C131.04 19.8521 132.594 20.5609 133.837 21.6651C135.321 22.9422 136.267 24.7562 136.689 26.6513C137.165 28.6277 137.012 30.6708 137.038 32.6835C137.038 36.8243 137.036 40.9651 137.039 45.1068C137.053 45.7229 136.778 46.3476 136.286 46.7249C135.699 47.1815 134.857 47.2227 134.189 46.9265C133.561 46.6476 133.147 45.979 133.14 45.297C133.131 44.4134 133.155 43.5298 133.13 42.6462C132.143 43.8498 130.99 44.933 129.627 45.7001C127.772 46.7728 125.622 47.2933 123.485 47.2991C121.324 47.3516 119.134 46.8635 117.243 45.8032C115.708 44.9378 114.394 43.6206 113.696 41.9871C112.973 40.3376 112.906 38.4587 113.265 36.7106C113.643 34.9052 114.719 33.2699 116.208 32.1848C118.088 30.7988 120.421 30.1808 122.716 29.9592C126.215 29.6745 129.764 30.05 133.135 31.0291C133.195 29.2495 133.04 27.3658 132.073 25.8203C131.292 24.5222 129.986 23.6023 128.557 23.1447C127.386 22.7627 126.147 22.6146 124.919 22.6385C123.246 22.6127 121.553 22.7885 119.968 23.3453C119.455 23.5135 118.97 23.7532 118.465 23.9385C117.786 24.185 116.991 23.9414 116.53 23.3988C115.832 22.628 116.003 21.2009 116.962 20.7214C118.821 19.8236 120.849 19.2743 122.909 19.1214ZM121.692 33.2967C120.344 33.6654 119.016 34.3417 118.161 35.4793C117.289 36.6065 117.029 38.1166 117.251 39.5026C117.457 40.7902 118.231 41.9546 119.298 42.6959C120.968 43.889 123.11 44.2147 125.118 44.0351C127.186 43.8527 129.244 43.1114 130.821 41.7369C132.203 40.5496 133.118 38.8044 133.183 36.9723C133.194 35.999 133.186 35.0256 133.185 34.0532C131.479 33.5394 129.723 33.2002 127.952 33.0178C125.869 32.8258 123.731 32.7474 121.692 33.2967Z" fill="#050038"/>
<path d="M141.985 21.0287C141.969 19.9779 142.875 19.0027 143.932 18.9808C145.025 18.9062 146.046 19.8376 146.07 20.9341C146.087 22.5016 146.07 24.071 146.076 25.6395C146.414 25.0596 146.693 24.4455 147.088 23.899C148.757 21.4757 151.37 19.6628 154.283 19.1383C155.031 19.0304 155.864 18.889 156.55 19.2997C157.756 19.9789 157.846 21.9399 156.734 22.75C156.256 23.1426 155.622 23.176 155.039 23.2667C152.962 23.6306 150.961 24.5792 149.472 26.0903C148.232 27.3053 147.358 28.8604 146.824 30.5043C146.248 32.2819 146.041 34.1637 146.076 36.0274C146.076 38.9885 146.075 41.9496 146.076 44.9108C146.083 45.4753 145.876 46.0493 145.471 46.4487C144.978 46.9683 144.188 47.1631 143.503 46.9701C142.832 46.8088 142.274 46.2662 142.079 45.6071C141.948 45.2288 141.99 44.8248 141.986 44.4332C141.986 36.6319 141.987 28.8308 141.985 21.0287Z" fill="#050038"/>
</g>
<defs>
<clipPath id="clip0_1_1759">
<rect width="287.938" height="61.7009" fill="white" transform="translate(0 0.922852)"/>
</clipPath>
</defs>
</svg>
